# xmcd
#
# Track frame offsets: 
#        150
#        557
#        1607
#        19115
#        35157
#        53605
#        71390
#        88317
#        106777
#        121912
#        140590
#        159465
#        178342
#        194092
#        214015
#        244395
#
# Disc length: 3519 seconds
#
# Revision: 0
# Processed by: cddbd v1.5.1PL2 Copyright (c) Steve Scherf et al.
# Submitted via: ExactAudioCopy v0.95a4
#
DISCID=d80dbd10
DTITLE=Lyfe Jennings - Lyfe 268-192
DYEAR=2005
DGENRE=Rap
TTITLE0=01 Intro
TTITLE1=02 Interlude
TTITLE2=03 Must be nice
TTITLE3=04 The way i feel about you
TTITLE4=05 She got kids
TTITLE5=06 I can't
TTITLE6=07 Hypnotheticaly (ft Erin)
TTITLE7=08 Smile
TTITLE8=09 Greedy
TTITLE9=10 Stick up kid
TTITLE10=11 Cry
TTITLE11=12 26 Years 17 Days
TTITLE12=13 Made up my mind
TTITLE13=14 My Life
TTITLE14=15 Lets do this right
TTITLE15=16 Must be nice (remix) Bonus track 
EXTD=
EXTT0=
EXTT1=
EXTT2=
EXTT3=
EXTT4=
EXTT5=
EXTT6=
EXTT7=
EXTT8=
EXTT9=
EXTT10=
EXTT11=
EXTT12=
EXTT13=
EXTT14=
EXTT15=
PLAYORDER=
